<?xml version="1.0" encoding="utf-8"?>
<!-- Generator: Adobe Illustrator 23.0.2, SVG Export Plug-In . SVG Version: 6.00 Build 0)  -->
<svg version="1.1" id="Layer_1" xmlns="http://www.w3.org/2000/svg" xmlns:xlink="http://www.w3.org/1999/xlink" x="0px" y="0px"
	 viewBox="0 0 225 225" style="enable-background:new 0 0 225 225;" xml:space="preserve">
<style type="text/css">
	.st0{fill:#F3CA0A;}
</style>
<g id="_x37_LfjOW.tif">
	
		<image style="overflow:visible;" width="225" height="225" id="Layer_0_1_" xlink:href="D25AA81989569645.png"  transform="matrix(1 0 0 1 283 11)">
	</image>
</g>
<polygon class="st0" points="320.6,112.5 399.8,112.5 409.2,127.8 310.3,127.8 "/>
<polygon class="st0" points="385.1,62.3 464.3,62.3 473.7,47 374.8,47 "/>
<polygon class="st0" points="374.8,47 349.4,87.4 364.1,108.6 383.2,108.6 369.2,87.4 385.1,62.3 "/>
<polygon class="st0" points="410.2,126.9 435.5,86.6 420.8,65.3 401,65.3 415.7,87.1 399.8,111.7 "/>
<g>
	<polygon class="st0" points="-8.5,154.5 126.3,154.5 142.9,180.4 -26.1,180.4 	"/>
	<polygon class="st0" points="100.3,70.5 235.1,70.5 251.1,44.6 82.7,44.6 	"/>
	<polygon class="st0" points="82.7,44.6 39.6,113.1 64.6,149.4 97.1,149.4 73.3,113.2 100.3,70.5 	"/>
	<polygon class="st0" points="142.9,180.4 186.1,111.9 161.1,75.6 127.4,75.6 152.5,112.6 125.4,154.5 	"/>
</g>
</svg>
